<svg width="500" height="500" viewBox="0 0 500 500" fill="none" xmlns="http://www.w3.org/2000/svg">
<path d="M282.676 227.941C280.125 226.17 277.044 225.285 273.432 225.285C269.978 225.285 266.917 226.17 264.248 227.941C261.579 229.712 259.538 232.23 258.125 235.496C257.654 236.735 257.3 238.093 257.006 239.509H289.094C288.976 237.975 288.681 236.499 288.152 235.142C287.053 232.112 285.227 229.712 282.676 227.941Z" fill="white"/>
<path d="M208.257 229.59C205.392 227.819 202.056 226.934 198.248 226.934C194.676 226.934 191.438 227.819 188.534 229.59C185.629 231.321 183.372 233.741 181.763 236.849C180.114 239.958 179.29 243.499 179.29 247.473C179.29 251.486 180.114 255.047 181.763 258.156C183.372 261.264 185.629 263.704 188.534 265.474C191.438 267.245 194.676 268.13 198.248 268.13C202.056 268.13 205.392 267.245 208.257 265.474C211.162 263.704 213.438 261.264 215.087 258.156C216.775 255.047 217.619 251.486 217.619 247.473C217.619 243.499 216.775 239.958 215.087 236.849C213.438 233.741 211.162 231.321 208.257 229.59Z" fill="white"/>
<path fill-rule="evenodd" clip-rule="evenodd" d="M455.363 199.964C455.363 199.964 443.941 221.211 429.163 248.302C426.278 245.764 422.569 243.816 417.918 242.4L407.026 239.154C405.416 238.642 404.003 238.091 402.787 237.501C401.57 236.911 400.628 236.163 399.961 235.258C399.293 234.314 398.96 233.252 398.96 232.071C398.96 229.986 399.764 228.333 401.374 227.113C402.944 225.894 405.102 225.284 407.85 225.284C411.304 225.284 414.405 226.189 417.152 227.999C419.939 229.809 421.922 232.268 423.099 235.376L435.64 229.415C433.559 223.828 430.046 219.48 425.101 216.372C420.155 213.263 414.464 211.709 408.027 211.709C403.081 211.709 398.705 212.575 394.897 214.306C391.051 216.076 388.067 218.536 385.948 221.683C383.828 224.831 382.769 228.51 382.769 232.72C382.769 237.442 384.241 241.534 387.184 244.997C390.167 248.499 394.505 251.037 400.196 252.61L411.383 255.798C412.913 256.191 414.268 256.703 415.445 257.332C416.583 257.962 417.525 258.729 418.271 259.634C418.978 260.5 419.331 261.601 419.331 262.939C419.331 265.143 418.448 266.913 416.681 268.251C414.915 269.589 412.56 270.258 409.616 270.258C405.77 270.258 402.276 269.156 399.136 266.953C395.996 264.788 393.543 261.778 391.777 257.922L379.354 263.824C381.434 269.805 385.183 274.527 390.599 277.99C396.016 281.491 402.355 283.242 409.616 283.242C409.773 283.242 409.93 283.242 410.087 283.242C392.424 315.527 374.82 347.28 368.344 357.904C353.684 381.985 313.059 398.511 280.853 386.647C280.853 386.647 106.638 314.288 67.0137 288.849C29.9804 265.123 22.503 209.053 64.482 182.139C108.227 154.045 131.66 140.766 131.66 140.766C156.212 126.719 162.629 126.482 190.419 123.649L401.02 109.425C447.768 108.717 477.913 158.885 455.363 199.964ZM154.033 234.727C154.033 227.841 152.797 221.467 150.324 215.604C147.851 209.702 144.397 204.567 139.962 200.2C135.526 195.832 130.326 192.429 124.359 189.989C118.433 187.589 111.995 186.389 105.048 186.389C98.1005 186.389 91.6437 187.589 85.6776 189.989C79.7507 192.429 74.5499 195.813 70.0753 200.141C65.6399 204.469 62.1858 209.604 59.713 215.545C57.2402 221.447 56.0038 227.841 56.0038 234.727C56.0038 241.613 57.2598 248.027 59.7719 253.968C62.284 259.87 65.7773 265.005 70.2519 269.372C74.6873 273.74 79.8488 277.144 85.7364 279.583C91.6634 282.023 98.1005 283.242 105.048 283.242C111.995 283.242 118.413 282.023 124.301 279.583C130.227 277.144 135.409 273.74 139.844 269.372C144.279 265.005 147.753 259.87 150.265 253.968C152.777 248.027 154.033 241.613 154.033 234.727ZM234.694 247.476C234.694 240.747 233.183 234.688 230.161 229.297C227.099 223.946 222.958 219.677 217.738 216.49C212.557 213.302 206.747 211.709 200.31 211.709C195.011 211.709 190.36 212.732 186.356 214.778C183.118 216.431 180.469 218.614 178.29 221.329V213.184H162.688V306.91H179.291V275.097C181.352 277.281 183.707 279.052 186.533 280.35C190.694 282.278 195.247 283.242 200.192 283.242C206.787 283.242 212.674 281.669 217.855 278.521C223.076 275.373 227.197 271.064 230.219 265.595C233.203 260.126 234.694 254.086 234.694 247.476ZM306.7 245.174C306.7 240.57 305.954 236.262 304.463 232.248C302.932 228.274 300.754 224.733 297.928 221.624C295.062 218.516 291.608 216.076 287.565 214.306C283.483 212.575 278.773 211.709 273.435 211.709C266.958 211.709 261.169 213.263 256.066 216.372C250.964 219.441 246.901 223.651 243.879 229.002C240.857 234.353 239.345 240.472 239.345 247.358C239.345 253.968 240.817 260.008 243.761 265.477C246.705 270.946 250.826 275.275 256.125 278.462C261.463 281.649 267.645 283.242 274.671 283.242C279.264 283.242 283.542 282.534 287.506 281.118C291.431 279.662 294.827 277.675 297.692 275.157C300.518 272.638 302.598 269.746 303.933 266.48L290.627 259.929C289.135 262.605 287.055 264.749 284.386 266.362C281.756 267.936 278.557 268.723 274.789 268.723C271.021 268.723 267.704 267.858 264.839 266.126C261.934 264.356 259.756 261.857 258.304 258.631C257.42 256.683 256.891 254.558 256.655 252.256H305.817C306.17 251.233 306.406 250.112 306.524 248.892C306.641 247.672 306.7 246.433 306.7 245.174ZM374.703 237.619C374.703 232.504 373.623 227.999 371.464 224.103C369.266 220.208 366.224 217.159 362.338 214.955C358.453 212.791 353.978 211.709 348.915 211.709C344.087 211.709 339.848 212.771 336.197 214.896C333.371 216.549 331.193 218.791 329.603 221.624V213.184H314.001V281.708H330.604V241.515C330.604 238.524 331.193 235.927 332.37 233.724C333.548 231.56 335.177 229.887 337.257 228.707C339.337 227.527 341.732 226.936 344.44 226.936C347.109 226.936 349.484 227.527 351.564 228.707C353.684 229.887 355.332 231.56 356.51 233.724C357.648 235.927 358.217 238.524 358.217 241.515V281.708H374.703V237.619Z" fill="white"/>
<path d="M127.713 211.239C124.808 208.249 121.433 205.966 117.586 204.393C113.739 202.779 109.559 201.973 105.045 201.973C100.531 201.973 96.3316 202.779 92.4457 204.393C88.5991 205.966 85.2431 208.249 82.3778 211.239C79.4732 214.229 77.2163 217.712 75.607 221.686C74.037 225.699 73.252 230.047 73.252 234.729C73.252 239.451 74.037 243.819 75.607 247.832C77.2163 251.885 79.4732 255.367 82.3778 258.279C85.2431 261.23 88.5991 263.532 92.4457 265.184C96.3316 266.797 100.531 267.604 105.045 267.604C109.559 267.604 113.739 266.797 117.586 265.184C121.433 263.532 124.808 261.23 127.713 258.279C130.617 255.367 132.855 251.885 134.425 247.832C136.034 243.819 136.839 239.451 136.839 234.729C136.839 230.047 136.034 225.699 134.425 221.686C132.855 217.712 130.617 214.229 127.713 211.239Z" fill="white"/>
</svg>
